<?xml version="1.0" encoding="utf-8"?>
<!-- Generator: Adobe Illustrator 27.5.0, SVG Export Plug-In . SVG Version: 6.00 Build 0)  -->
<svg version="1.1" id="Livello_1" xmlns="http://www.w3.org/2000/svg" xmlns:xlink="http://www.w3.org/1999/xlink" x="0px" y="0px"
	 viewBox="0 0 466.6 442" style="enable-background:new 0 0 466.6 442;" xml:space="preserve">
<style type="text/css">
	.st0{fill:url(#SVGID_1_);}
</style>
<g>
	<linearGradient id="SVGID_1_" gradientUnits="userSpaceOnUse" x1="10.7412" y1="205.2319" x2="447.6299" y2="205.2319">
		<stop  offset="0" style="stop-color:#FCF6BA"/>
		<stop  offset="0" style="stop-color:#B38728"/>
		<stop  offset="0.5" style="stop-color:#FCF6BA"/>
		<stop  offset="1" style="stop-color:#B68B2E"/>
	</linearGradient>
	<path class="st0" d="M181.4,397.2L61.3,237.7c-17.7,40.2-32.3,69-33.6,71.5l-16.9-8.6c0.7-1.3,68.3-135.1,91.4-234l12.5-53.5
		l6.2,54.5c4.5,39.7,9.5,74.7,14.7,105.4c44.4-23.4,100.3-50.4,145.7-64.8l25.3-8L292,122.7c-35.7,55-57.3,90.9-70.3,114.2
		c12.2-10.1,27.1-21.7,44.2-33.4c44.3-30.3,111.7-66.8,181.3-68.3l0.4,19c-124.8,2.6-246.8,127-248,128.3l-16.8,17.3l0.5-24.1
		c0.1-4.7,6.2-28.3,77.7-140.1c-40.2,15.4-85.5,37.9-122.1,57.3c10.7,59.3,21.8,100.8,30.6,128.3c15.2,47.6,27.1,64.6,27.2,64.7
		L181.4,397.2z M77.1,227.2l73.6,97.7c-9.2-29.3-19.6-69.2-29.4-122.5C102,212.9,86.3,221.8,77.1,227.2z M202.2,277.2L202.2,277.2
		C202.2,277.2,202.2,277.2,202.2,277.2z M107.8,117c-9.7,30.5-21.6,61.6-33.3,89.7c10.5-6.1,25.6-14.5,43.3-24.1
		C114.4,162.5,111,140.7,107.8,117z"/>
</g>
</svg>
