<?xml version="1.0" encoding="utf-8"?>
<!-- Generator: Adobe Illustrator 27.6.1, SVG Export Plug-In . SVG Version: 6.00 Build 0)  -->
<svg version="1.1" id="Livello_1" xmlns="http://www.w3.org/2000/svg" xmlns:xlink="http://www.w3.org/1999/xlink" x="0px" y="0px"
	 viewBox="0 0 240 240" style="enable-background:new 0 0 240 240;" xml:space="preserve">
<g>
	<path d="M225.4,49.1c-0.3-0.9-1.4-0.8-2.3-0.8c-0.6,0-1.3,0-1.9,0c-33.7,0-67.3,0-101,0c-34,0-68,0-101.9,0c-0.8,0-1.5,0-2.2,0.1
		c-0.6,0.1-1.3,0.2-1.5,0.9c-0.1,0.6,0.6,0.9,1,1.2c2.2,1.7,4.4,3.4,6.5,5.2C29,61.4,35.9,67.2,42.8,73c8.2,6.8,16.5,13.6,24.5,20.4
		c5.7,4.6,11.3,9.3,16.9,14c5.7,4.7,11.5,9.4,17.2,14.1c5.9,4.9,11.8,9.8,17.6,14.8c0.9,0.8,1.5,0.4,2.1-0.1c2.5-2,5-4,7.4-6.1
		c6.8-5.7,13.6-11.5,20.5-17.2c7.1-5.9,14.4-11.7,21.5-17.6c8.3-6.9,16.5-13.8,24.8-20.7c5-4.2,10.1-8.3,15.1-12.5
		c4.5-3.7,8.9-7.4,13.4-11.2C224.4,50.4,225.8,50.2,225.4,49.1z"/>
	<path d="M120.2,191.4c-32.9,0-65.9,0-98.8,0c-2.2,0-4.3-0.4-6.4-0.5c-1.1-0.1-1.3-0.5-0.5-1.3c2.9-2.9,5.7-5.8,8.6-8.6
		c3-3,6.1-5.8,9-8.8c3.5-3.6,7.1-7.2,10.8-10.7c3.1-3,5.9-6.1,9-9.2c3.4-3.4,7-6.7,10.4-10.1c3-2.9,5.8-6,8.7-8.9
		c2.1-2.1,4.1-4.1,6.2-6.2c1.8-1.8,3.7-3.4,5.3-5.3c1.4-1.6,2.7-1.6,4.2-0.4c8.2,6.9,16.5,13.9,24.7,20.8c1.5,1.2,3,2.4,4.4,3.6
		c4.2,3.4,6.2,1.9,9.1-0.5c7.5-6.1,14.9-12.3,22.3-18.4c2.1-1.7,4.2-3.5,6.2-5.3c1.5-1.4,2.9-1.4,4.4,0.1c7,7.1,14.2,14.1,21.2,21.2
		c5.9,6,11.8,12,17.8,17.9c7,6.9,13.8,13.9,20.9,20.7c2.6,2.5,5.2,5.1,7.7,7.7c0.4,0.4,1.1,0.7,0.9,1.3c-0.2,0.7-0.9,0.4-1.5,0.5
		c-7.5,1.1-15.1,0.5-22.6,0.5C174.8,191.5,147.5,191.4,120.2,191.4L120.2,191.4z"/>
	<path d="M6.7,182.7c-0.8-8.9-0.4-17.7-0.4-26.4c-0.1-29.8,0-59.6,0-89.4c0-3.1,0.2-6.3,0.3-9.4c0-0.6,0.1-1.2,0.7-1.4
		c0.5-0.2,0.8,0.3,1.2,0.6c9,7.4,18.1,14.8,27.1,22.3c8.3,6.9,16.5,14,24.8,20.9c2.8,2.3,6,4.2,8.2,7.3c4.1,5.8,2.6,11.7-1.8,16.2
		c-7.8,7.8-15.7,15.6-23.5,23.5c-11.2,11.2-22.5,22.5-33.7,33.7C8.8,181.2,8.2,182.2,6.7,182.7z"/>
	<path d="M232.8,55.7c0.7,1.5,0.9,2.8,0.9,4.1c0,39.8,0,79.6,0,119.5c0,1.1,0.6,2.7-0.6,3c-0.9,0.2-2-1.1-2.8-2
		c-3.4-3.7-7-7.1-10.6-10.6c-3.2-3.1-6.2-6.4-9.3-9.6c-3.2-3.2-6.5-6.3-9.7-9.5c-3.1-3-6.1-6.1-9.1-9.1c-3.3-3.3-6.7-6.6-9.9-10.1
		c-3.7-4.1-8.4-7.3-11.2-12.4c-3-5.4-0.3-11.2,3.3-14.3c5.4-4.6,10.9-9.1,16.3-13.6c4.1-3.4,8.2-6.8,12.3-10.2
		c5.4-4.5,10.8-9,16.2-13.5C223.3,63.5,227.9,59.7,232.8,55.7z"/>
</g>
</svg>
