<?xml version="1.0" encoding="utf-8"?>
<!-- Generator: Adobe Illustrator 27.6.1, SVG Export Plug-In . SVG Version: 6.00 Build 0)  -->
<svg version="1.1" id="Livello_1" xmlns="http://www.w3.org/2000/svg" xmlns:xlink="http://www.w3.org/1999/xlink" x="0px" y="0px"
	 viewBox="0 0 262 258.4" style="enable-background:new 0 0 262 258.4;" xml:space="preserve">
<g>
	<path d="M51.1,167.5c0-10.7,0-21.3,0-32c0-7.2-4.3-11.8-11.4-12.2c-5.7-0.3-9.2-2.7-10.8-8c-1.5-4.8-0.1-8.9,3.7-12.2
		C44.2,93,55.8,82.9,67.4,72.7c11-9.6,21.9-19.2,32.8-28.7c5.8-5.1,11.6-10.2,17.4-15.2c5.3-4.6,10.6-4.8,15.9-0.2
		c10.9,9.3,21.8,18.6,32.5,28.3c5.4,4.9,10.7,9.8,16.3,14.4c12.7,10.3,24.8,21.4,37,32.3c3.1,2.8,5,6.3,3.9,10.7
		c-1.1,4.6-3.8,7.7-8.4,8.9c-2.2,0.5-4.5,0.4-6.7,0.7c-5.2,0.7-9,4.7-9.2,9.9c-0.2,6.5-0.1,13-0.1,19.5c0,15.6,0,31.1,0.1,46.7
		c0,6.9-4.3,11.8-11.2,11.9c-11.9,0.2-23.9,0.1-35.8,0.1c-1.5,0-1.5-0.8-1.5-1.9c0-4.2,0-8.3,0-12.5c0-14.2,0-28.4,0-42.6
		c0-4.3-2.2-6.8-6.5-7c-11.6-0.6-23.1-0.1-34.7-0.2c-4.5,0-7.9,1.8-7.9,8.2c0.2,17.8,0,35.5,0.1,53.3c0,2.2-0.6,2.8-2.8,2.8
		c-11.7-0.1-23.4,0-35.2-0.1c-4.8,0-8.7-1.8-11.1-6.1c-0.9-1.7-1.4-3.5-1.4-5.4C51.1,189.3,51.1,178.4,51.1,167.5
		C51.1,167.5,51.1,167.5,51.1,167.5z"/>
</g>
</svg>
