<?xml version="1.0" encoding="utf-8"?>
<!-- Generator: Adobe Illustrator 27.6.1, SVG Export Plug-In . SVG Version: 6.00 Build 0)  -->
<svg version="1.1" id="Livello_1" xmlns="http://www.w3.org/2000/svg" xmlns:xlink="http://www.w3.org/1999/xlink" x="0px" y="0px"
	 viewBox="0 0 240 240" style="enable-background:new 0 0 240 240;" xml:space="preserve">
<style type="text/css">
	.st0{fill:#2354A3;}
	.st1{fill:#FEFEFE;}
</style>
<path class="st0" d="M234.3,122.4c0,63.1-51.2,114.3-114.3,114.3S5.7,185.6,5.7,122.4S56.9,8.1,120,8.1S234.3,59.3,234.3,122.4
	L234.3,122.4z"/>
<path class="st1" d="M128.9,106.9c1.9-2.1,3.4-4.3,5.3-6.1c6-5.6,12.9-8.4,21.1-8.3c4.5,0.1,8.9,0.3,13.3,1.6
	c9.9,2.9,15.7,9.7,18.4,19.4c2.1,7.2,2.4,14.7,2.5,22.2c0,15.8-0.1,31.6,0,47.4c0,1.5-0.4,1.9-1.9,1.9c-8.1-0.1-16.3-0.1-24.4,0
	c-1.4,0-1.7-0.4-1.7-1.8c0.1-15.1,0.1-30.1,0-45.1c0-3.8-0.2-7.5-1.3-11.2c-2-6.7-6.8-10.2-13.8-9.8c-9.7,0.5-14.7,5.3-15.9,15.1
	c-0.3,2.4-0.4,4.7-0.4,7c0,14.6,0,29.2,0.1,43.8c0,1.5-0.3,1.9-1.9,1.9c-8.2-0.1-16.4-0.1-24.6,0c-1.3,0-1.7-0.3-1.7-1.7
	c0.1-28.9,0.1-57.9,0-86.8c0-1.4,0.4-1.7,1.8-1.7c7.8,0.1,15.6,0.1,23.4,0c1.5,0,1.8,0.4,1.8,1.8
	C128.8,99.9,128.9,103.4,128.9,106.9L128.9,106.9z"/>
<path class="st1" d="M84.3,139.9c0,14.3,0,28.6,0.1,42.9c0,1.6-0.4,2.1-2,2.1c-8.1-0.1-16.3-0.1-24.4,0c-1.3,0-1.7-0.3-1.7-1.7
	c0.1-29,0.1-58,0-87c0-1.2,0.3-1.6,1.6-1.6c8.3,0.1,16.5,0.1,24.8,0c1.6,0,1.8,0.6,1.8,2C84.3,111,84.3,125.5,84.3,139.9L84.3,139.9
	z"/>
<path class="st1" d="M86.5,65.9c0,9-7.3,16.3-16.2,16.3c-8.9,0-16.2-7.3-16.2-16.2c-0.1-8.9,7.3-16.3,16.3-16.3
	C79.2,49.8,86.5,57.1,86.5,65.9L86.5,65.9z"/>
</svg>
